<?xml version="1.0" encoding="UTF-8"?>
<!-- Generator: visioncortex VTracer 0.6.5 -->
<svg version="1.1" xmlns="http://www.w3.org/2000/svg" width="772" height="392" viewBox="267 452 772 392">
<path d="M0 0 C31.02 -0.47 71.95 13.64 94.5 35.41 C95.33 36.27 96.15 37.12 97 38 C100.53 41.57 104.15 45.01 107.88 48.38 C111.94 52.06 115.88 55.81 119.6 59.86 C121 61 121 61 124 61 C126.04 63.12 126.04 63.12 128.19 65.88 C128.55 66.33 128.55 66.33 130.36 68.62 C132 71 132 71 132 73 C133.66 74.67 135.33 76.34 137 78 C138.47 79.94 139.89 81.92 141.25 83.94 C141.59 84.44 141.59 84.44 143.33 86.96 C145.07 90.13 145.46 92.46 146 96 C146.95 98.16 147.97 100.29 149.06 102.38 C149.61 103.43 150.16 104.49 150.72 105.59 C151.14 106.38 151.57 107.18 152 108 C152.66 108 153.32 108 154 108 C155.01 110.2 156.01 112.41 157 114.62 C157.29 115.24 157.57 115.86 157.87 116.5 C159.64 120.5 160.32 123.63 160 128 C160.66 128 161.32 128 162 128 C162.52 131.53 163.01 135.06 163.41 138.61 C164.14 144.45 165.36 150.19 166.54 155.96 C169.02 168.55 169.13 180.91 169.06 193.69 C169.06 195.37 169.05 197.06 169.05 198.74 C169.04 202.83 169.02 206.91 169 211 C169.66 210.67 170.32 210.34 171 210 C169.07 229 169.07 229 167 237 C166.34 237 165.68 237 165 237 C163.99 240.54 162.99 244.08 162 247.62 C161.71 248.62 161.43 249.62 161.13 250.65 C159.75 255.62 158.88 259.82 159 265 C158.13 267.99 158.13 267.99 157 270.88 C156.63 271.84 156.26 272.81 155.88 273.8 C155.59 274.53 155.3 275.25 155 276 C154.34 276 153.68 276 153 276 C152.89 276.73 152.77 277.46 152.65 278.21 C151.99 281.06 151.03 283.05 149.56 285.56 C147.08 289.84 147.08 289.84 146.07 291.89 C139.05 305.75 128.67 320.87 116 330 C113.25 332.61 110.77 335.27 108.44 338.25 C105.93 341.08 105.42 341.29 102 342 C101.71 342.61 101.42 343.21 101.12 343.84 C99.82 346.35 98.54 347.37 96.25 349 C95.54 349.51 94.83 350.02 94.1 350.55 C92.29 351.8 90.47 353.04 88.62 354.25 C86 356 86 356 84 358 C82.19 359.08 80.35 360.12 78.5 361.12 C77.52 361.66 76.54 362.2 75.53 362.76 C73 364 73 364 71 364 C70.67 364.66 70.34 365.32 70 366 C68.13 366.88 66.23 367.68 64.31 368.44 C61.19 369.68 58.16 370.92 55.17 372.47 C51.2 374.39 47.15 375.7 42.94 377 C42.1 377.26 41.26 377.52 40.39 377.79 C27.23 381.82 14.71 384.17 0.91 383.97 C-1.47 384.01 -3.69 384.4 -6 385 C-6 385.33 -6 385.66 -6 386 C-76.62 386 -147.24 386 -220 386 C-220 351.02 -220 316.04 -220 280 C-220.33 280 -220.66 280 -221 280 C-221 265.81 -221 251.62 -221 237 C-222.32 237.33 -223.64 237.66 -225 238 C-226.75 238.09 -228.51 238.12 -230.26 238.12 C-230.8 238.12 -230.8 238.12 -233.49 238.12 C-234.65 238.12 -235.82 238.12 -237.02 238.11 C-238.27 238.11 -239.52 238.11 -240.81 238.11 C-244.18 238.11 -247.56 238.11 -250.94 238.1 C-254.11 238.1 -257.28 238.1 -260.45 238.09 C-269.71 238.09 -278.98 238.08 -288.25 238.06 C-308.96 238.04 -329.66 238.02 -351 238 C-351.33 286.18 -351.66 334.36 -352 384 C-352.66 384 -353.32 384 -354 384 C-354.33 384.99 -354.66 385.98 -355 387 C-393.28 386.67 -431.56 386.34 -471 386 C-470.67 259.28 -470.34 132.56 -470 2 C-431.06 2 -392.12 2 -352 2 C-352 45.89 -352 89.78 -352 135 C-346.39 135 -340.78 135 -335 135 C-335 135.33 -335 135.66 -335 136 C-301.01 136 -267.02 136 -232 136 C-232 135.67 -232 135.34 -232 135 C-228.37 135 -224.74 135 -221 135 C-221.33 126.75 -221.66 118.5 -222 110 C-221.34 109.67 -220.68 109.34 -220 109 C-219.67 73.69 -219.34 38.38 -219 2 C-146.73 2 -74.46 2 0 2 C0 1.34 0 0.68 0 0 Z M4 2 C4 2.33 4 2.66 4 3 C5.65 3 7.3 3 9 3 C9 2.67 9 2.34 9 2 C7.35 2 5.7 2 4 2 Z M11 3 C11 3.33 11 3.66 11 4 C12.98 4 14.96 4 17 4 C17 3.67 17 3.34 17 3 C15.02 3 13.04 3 11 3 Z M18 4 C22 5 22 5 22 5 Z M-354 35 C-354 39.29 -354 43.58 -354 48 C-353.67 48 -353.34 48 -353 48 C-353 43.71 -353 39.42 -353 35 C-353.33 35 -353.66 35 -354 35 Z M-354 52 C-353 54 -353 54 -353 54 Z M-354 79 C-354 83.29 -354 87.58 -354 92 C-353.67 92 -353.34 92 -353 92 C-353 87.71 -353 83.42 -353 79 C-353.33 79 -353.66 79 -354 79 Z M-49 96 C-49 96.33 -49 96.66 -49 97 C-46.36 97 -43.72 97 -41 97 C-41 96.67 -41 96.34 -41 96 C-43.64 96 -46.28 96 -49 96 Z M-78 97 C-74 98 -74 98 -74 98 Z M-39 97 C-39 97.33 -39 97.66 -39 98 C-35.7 98 -32.4 98 -29 98 C-29 97.67 -29 97.34 -29 97 C-32.3 97 -35.6 97 -39 97 Z M-28 98 C-28 98.33 -28 98.66 -28 99 C-26.35 99 -24.7 99 -23 99 C-23 98.67 -23 98.34 -23 98 C-24.65 98 -26.3 98 -28 98 Z M-89 99 C-89 161.04 -89 223.08 -89 287 C-26 287 -26 287 -11 282 C-10.05 282.04 -9.1 282.08 -8.12 282.12 C-3.79 281.95 -0.72 280.11 3 278 C2.67 277.34 2.34 276.68 2 276 C3.75 274.87 5.5 273.75 7.25 272.62 C8.22 272 9.2 271.37 10.2 270.73 C12.44 269.35 14.65 268.16 17 267 C18.5 265.62 18.5 265.62 20 264 C24 260 24 260 25.62 258.5 C27 257 27 257 27.81 255.36 C29.83 251.35 32.27 247.57 34.63 243.75 C36.54 240.61 38.27 237.53 39.68 234.14 C40.86 231.33 41.67 229.88 44 228 C43.34 227.67 42.68 227.34 42 227 C42.46 226.63 42.92 226.26 43.4 225.88 C45.55 223.35 45.93 221.12 46.62 217.88 C46.86 216.8 47.1 215.72 47.35 214.62 C51.22 193.02 51.12 164.71 38.5 145.75 C37 144 37 144 35.58 142.64 C33.28 140.25 31.53 137.5 29.69 134.75 C21.2 122.4 11.54 113.8 -2 107 C-2 106.34 -2 105.68 -2 105 C-6.03 102.42 -7.52 103 -13 103 C-18.94 101.68 -24.88 100.36 -31 99 C-50.14 99 -69.28 99 -89 99 Z M-23 99 C-19 100 -19 100 -19 100 Z M-19 100 C-15 101 -15 101 -15 101 Z M-354 105 C-354 111.27 -354 117.54 -354 124 C-353.67 124 -353.34 124 -353 124 C-353 117.73 -353 111.46 -353 105 C-353.33 105 -353.66 105 -354 105 Z M155 115 C156 117 156 117 156 117 Z M156 117 C157 119 157 119 157 119 Z M157 120 C158 122 158 122 158 122 Z M158 123 C159 125 159 125 159 125 Z M161 132 C162 135 162 135 162 135 Z M167 219 C167 221.31 167 223.62 167 226 C167.33 226 167.66 226 168 226 C168 223.69 168 221.38 168 219 C167.67 219 167.34 219 167 219 Z M166 227 C166 228.65 166 230.3 166 232 C166.33 232 166.66 232 167 232 C167 230.35 167 228.7 167 227 C166.67 227 166.34 227 166 227 Z M40 233 C41 235 41 235 41 235 Z M-354 235 C-354 235.33 -354 235.66 -354 236 C-310.11 236 -266.22 236 -221 236 C-221 235.67 -221 235.34 -221 235 C-264.89 235 -308.78 235 -354 235 Z M39 235 C40 237 40 237 40 237 Z M-354 249 C-354 254.94 -354 260.88 -354 267 C-353.67 267 -353.34 267 -353 267 C-353 261.06 -353 255.12 -353 249 C-353.33 249 -353.66 249 -354 249 Z M157 262 C158 264 158 264 158 264 Z M156 265 C157 267 157 267 157 267 Z M155 267 C156 269 156 269 156 269 Z M-354 269 C-354 275.27 -354 281.54 -354 288 C-353.67 288 -353.34 288 -353 288 C-353 281.73 -353 275.46 -353 269 C-353.33 269 -353.66 269 -354 269 Z M153 272 C154 274 154 274 154 274 Z M-20 285 C-16 286 -16 286 -16 286 Z M-24 286 C-20 287 -20 287 -20 287 Z M-31 287 C-31 287.33 -31 287.66 -31 288 C-29.02 288 -27.04 288 -25 288 C-25 287.67 -25 287.34 -25 287 C-26.98 287 -28.96 287 -31 287 Z M-87 288 C-87 288.33 -87 288.66 -87 289 C-68.52 289 -50.04 289 -31 289 C-31 288.67 -31 288.34 -31 288 C-49.48 288 -67.96 288 -87 288 Z M-354 302 C-354 304.64 -354 307.28 -354 310 C-353.67 310 -353.34 310 -353 310 C-353 307.36 -353 304.72 -353 302 C-353.33 302 -353.66 302 -354 302 Z M-354 311 C-354 315.95 -354 320.9 -354 326 C-353.67 326 -353.34 326 -353 326 C-353 321.05 -353 316.1 -353 311 C-353.33 311 -353.66 311 -354 311 Z M-354 331 C-354 340.24 -354 349.48 -354 359 C-353.67 359 -353.34 359 -353 359 C-353 349.76 -353 340.52 -353 331 C-353.33 331 -353.66 331 -354 331 Z M-354 367 C-353 371 -353 371 -353 371 Z M9 382 C9 382.33 9 382.66 9 383 C10.65 383 12.3 383 14 383 C14 382.67 14 382.34 14 382 C12.35 382 10.7 382 9 382 Z " fill="#000000" transform="translate(739,454)"/>
<path d="M0 0 C0.97 0 1.95 0.01 2.95 0.01 C10.08 0.12 16.48 0.96 23.25 3.31 C23.67 3.44 23.67 3.44 25.79 4.11 C27.96 4.8 30.1 5.54 32.25 6.31 C33.18 6.62 34.11 6.93 35.06 7.25 C38.35 8.85 40.33 11.22 42.66 13.99 C45.64 17.54 48.56 20.47 52.25 23.31 C60.9 30.41 65.7 43.45 67.25 54.31 C68.88 74.12 65.33 90.69 54.25 107.31 C53.59 107.31 52.93 107.31 52.25 107.31 C52 107.89 51.76 108.47 51.5 109.07 C46.17 118.61 33.23 125.64 23.25 129.31 C21.59 129.67 19.92 130.02 18.25 130.31 C17.26 130.97 16.27 131.63 15.25 132.31 C12.75 132.51 10.37 132.59 7.88 132.58 C7.16 132.58 6.44 132.58 5.7 132.58 C4.18 132.59 2.66 132.58 1.14 132.57 C-1.18 132.56 -3.49 132.57 -5.81 132.59 C-7.29 132.58 -8.77 132.58 -10.25 132.58 C-10.94 132.58 -11.63 132.59 -12.34 132.59 C-16.02 132.55 -18.6 132.23 -21.75 130.31 C-23.66 129.73 -25.57 129.19 -27.5 128.69 C-28.48 128.43 -29.47 128.17 -30.48 127.9 C-31.23 127.71 -31.98 127.51 -32.75 127.31 C-32.75 126.65 -32.75 125.99 -32.75 125.31 C-33.6 125.09 -34.44 124.86 -35.31 124.62 C-39.25 123.12 -42.64 121.19 -45.75 118.31 C-45.75 117.65 -45.75 116.99 -45.75 116.31 C-46.74 116.31 -47.73 116.31 -48.75 116.31 C-50.49 114.48 -51.99 112.7 -53.5 110.69 C-53.94 110.1 -54.38 109.52 -54.83 108.92 C-66.65 92.79 -70.97 75.16 -68.21 55.47 C-65.12 39.87 -57.74 24.21 -44.75 14.31 C-42.72 13.73 -42.72 13.73 -40.75 13.31 C-34.95 9.9 -34.95 9.9 -33.75 6.31 C-29.65 3.65 -26.06 2.92 -21.29 2.62 C-18.75 2.31 -18.75 2.31 -15.13 1.3 C-10.1 0.01 -5.18 -0.03 0 0 Z M-62.75 41.31 C-61.75 43.31 -61.75 43.31 -61.75 43.31 Z M-63.75 43.31 C-62.75 45.31 -62.75 45.31 -62.75 45.31 Z M63.25 46.31 C64.25 48.31 64.25 48.31 64.25 48.31 Z M-65.75 50.31 C-64.75 53.31 -64.75 53.31 -64.75 53.31 Z M64.25 50.31 C65.25 53.31 65.25 53.31 65.25 53.31 Z M-66.75 54.31 C-66.75 56.29 -66.75 58.27 -66.75 60.31 C-66.42 60.31 -66.09 60.31 -65.75 60.31 C-65.75 58.33 -65.75 56.35 -65.75 54.31 C-66.08 54.31 -66.41 54.31 -66.75 54.31 Z M65.25 55.31 C65.25 61.58 65.25 67.85 65.25 74.31 C65.58 74.31 65.91 74.31 66.25 74.31 C66.25 68.04 66.25 61.77 66.25 55.31 C65.92 55.31 65.59 55.31 65.25 55.31 Z M-67.75 62.31 C-67.75 65.61 -67.75 68.91 -67.75 72.31 C-67.42 72.31 -67.09 72.31 -66.75 72.31 C-66.75 69.01 -66.75 65.71 -66.75 62.31 C-67.08 62.31 -67.41 62.31 -67.75 62.31 Z M-66.75 73.31 C-66.75 75.62 -66.75 77.93 -66.75 80.31 C-66.42 80.31 -66.09 80.31 -65.75 80.31 C-65.75 78 -65.75 75.69 -65.75 73.31 C-66.08 73.31 -66.41 73.31 -66.75 73.31 Z M64.25 77.31 C65.25 80.31 65.25 80.31 65.25 80.31 Z M-65.75 82.31 C-64.75 84.31 -64.75 84.31 -64.75 84.31 Z M63.25 82.31 C64.25 84.31 64.25 84.31 64.25 84.31 Z M-63.75 88.31 C-62.75 90.31 -62.75 90.31 -62.75 90.31 Z " fill="#000000" transform="translate(971.75,710.6875)"/>
<path d="M0 0 C0.33 0 0.66 0 1 0 C1 126.72 1 253.44 1 384 C0.67 384 0.34 384 0 384 C0 257.28 0 130.56 0 0 Z " fill="#000000" transform="translate(267,455)"/>
<path d="M0 0 C1.04 -0 2.07 -0 3.14 -0 C6.53 0 9.92 0.01 13.31 0.02 C15.68 0.02 18.04 0.02 20.41 0.02 C26.6 0.02 32.8 0.03 39 0.04 C45.34 0.06 51.67 0.06 58.01 0.06 C70.42 0.08 82.83 0.09 95.25 0.11 C95.25 0.77 95.25 1.43 95.25 2.11 C57.3 2.11 19.35 2.11 -19.75 2.11 C-19.75 1.78 -19.75 1.45 -19.75 1.11 C-13.13 0.26 -6.68 -0.03 0 0 Z " fill="#000000" transform="translate(288.752197265625,452.886474609375)"/>
<path d="M0 0 C11.43 -0.02 22.86 -0.04 34.29 -0.05 C39.6 -0.06 44.91 -0.06 50.22 -0.08 C55.35 -0.09 60.48 -0.09 65.61 -0.09 C67.56 -0.1 69.51 -0.1 71.46 -0.11 C74.21 -0.11 76.95 -0.11 79.69 -0.11 C80.09 -0.12 80.09 -0.12 82.11 -0.12 C87.79 -0.11 93.36 0.35 99 1 C99 1.33 99 1.66 99 2 C66 2 33 2 -1 2 C-0.67 1.34 -0.34 0.68 0 0 Z " fill="#000000" transform="translate(640,453)"/>
<path d="M0 0 C1.22 -0 2.43 -0.01 3.68 -0.01 C5 -0 6.31 0.01 7.66 0.01 C9.04 0.01 10.41 0.01 11.78 0.01 C14.67 0.02 17.55 0.02 20.43 0.04 C24.09 0.05 27.74 0.06 31.4 0.06 C34.24 0.06 37.08 0.06 39.92 0.07 C41.92 0.07 43.91 0.08 45.9 0.08 C54.31 0.12 62.61 0.54 70.98 1.24 C70.98 1.57 70.98 1.9 70.98 2.24 C44.25 2.24 17.52 2.24 -10.02 2.24 C-5.96 0.22 -4.38 -0.01 0 0 Z " fill="#000000" transform="translate(530.01513671875,452.757080078125)"/>
<path d="M0 0 C0 34.32 0 68.64 0 104 C-0.66 104 -1.32 104 -2 104 C-1.67 70.67 -1.34 37.34 -1 3 C-1.66 3 -2.32 3 -3 3 C-3 2.34 -3 1.68 -3 1 C-1 0 -1 0 0 0 Z " fill="#000000" transform="translate(519,734)"/>
<path d="M0 0 C0.33 0 0.66 0 1 0 C1 35.64 1 71.28 1 108 C0.67 108 0.34 108 0 108 C-0.86 95.09 -1.15 82.25 -1.13 69.32 C-1.13 67.4 -1.13 65.48 -1.14 63.56 C-1.14 59.59 -1.14 55.61 -1.13 51.64 C-1.12 46.54 -1.13 41.44 -1.13 36.34 C-1.14 32.4 -1.14 28.46 -1.13 24.52 C-1.13 22.64 -1.13 20.76 -1.14 18.88 C-1.14 16.27 -1.13 13.65 -1.13 11.04 C-1.13 10.27 -1.13 9.49 -1.14 8.69 C-1.12 5.53 -1.01 3.03 0 0 Z " fill="#000000" transform="translate(518,455)"/>
<path d="M0 0 C0.16 0.33 0.16 0.33 1 2 C-0.24 1.57 -1.48 1.13 -2.75 0.69 C-4.5 0.12 -6.25 -0.44 -8 -1 C-8.82 -1.29 -9.65 -1.57 -10.5 -1.87 C-22.87 -5.64 -38.85 -6.06 -51.07 -1.56 C-53 -1 -53 -1 -56 -2 C-37.59 -8.5 -17.82 -9.59 0 0 Z " fill="#000000" transform="translate(1003,715)"/>
<path d="M0 0 C1.66 3 2.47 5.69 3.06 9.06 C3.14 9.49 3.14 9.49 3.54 11.66 C5.09 22.85 5.12 33.91 5.06 45.19 C5.06 46.92 5.05 48.65 5.05 50.38 C5.04 54.59 5.02 58.79 5 63 C4.67 63 4.34 63 4 63 C3.99 62.02 3.97 61.05 3.96 60.04 C3.67 42.15 3.21 24.59 0.27 6.9 C-0.06 4.58 -0.11 2.33 0 0 Z " fill="#000000" transform="translate(905,601)"/>
<path d="M0 0 C4.1 -0.03 8.21 -0.05 12.31 -0.06 C13.46 -0.07 14.61 -0.08 15.79 -0.09 C22.92 -0.11 29.91 0.2 37 1 C37 1.33 37 1.66 37 2 C24.46 2 11.92 2 -1 2 C-0.67 1.34 -0.34 0.68 0 0 Z " fill="#000000" transform="translate(602,453)"/>
<path d="M0 0 C20.46 0 40.92 0 62 0 C62 0.33 62 0.66 62 1 C41.54 1 21.08 1 0 1 C0 0.67 0 0.34 0 0 Z " fill="#000000" transform="translate(407,589)"/>
<path d="M0 0 C6.77 10.16 5.14 26.31 5 38 C4.67 38 4.34 38 4 38 C3.97 37.66 3.97 37.66 3.85 35.96 C3.61 32.84 3.37 29.73 3.12 26.62 C3.05 25.56 2.97 24.5 2.89 23.41 C2.42 17.54 1.71 11.88 0.4 6.13 C0 4 0 4 0 0 Z " fill="#000000" transform="translate(782,615)"/>
<path d="M0 0 C0.33 0 0.66 0 1 0 C1 14.19 1 28.38 1 43 C0.67 43 0.34 43 0 43 C0 28.81 0 14.62 0 0 Z " fill="#000000" transform="translate(651,668)"/>
<path d="M0 0 C3.68 1.54 5.99 3.78 8.75 6.62 C9.55 7.44 10.35 8.26 11.17 9.1 C11.47 9.41 11.47 9.41 13 11 C12.67 11.66 12.34 12.32 12 13 C10 11.02 8 9.04 6 7.06 C5.43 6.5 4.86 5.93 4.27 5.35 C2.82 3.92 1.41 2.46 0 1 C0 0.67 0 0.34 0 0 Z " fill="#000000" transform="translate(847,501)"/>
<path d="M0 0 C0.33 0 0.66 0 1 0 C0.52 5.57 -0.3 10.67 -2 16 C-3.38 12.23 -2.6 9.55 -1.56 5.75 C-1.28 4.67 -0.99 3.59 -0.69 2.48 C-0.46 1.66 -0.24 0.84 0 0 Z " fill="#000000" transform="translate(904,691)"/>
<path d="M0 0 C2.02 3.04 2.32 4.19 2.62 7.69 C2.7 8.5 2.77 9.3 2.85 10.14 C2.9 10.75 2.95 11.37 3 12 C0.77 7.97 0.46 4.55 0 0 Z " fill="#000000" transform="translate(902,589)"/>
<path d="M0 0 C2.62 1.05 3.79 1.65 5.25 4.12 C5.5 4.74 5.75 5.36 6 6 C3.98 4.36 1.98 2.69 0 1 C0 0.67 0 0.34 0 0 Z " fill="#000000" transform="translate(1017,727)"/>
<path d="M0 0 C0.33 0 0.66 0 1 0 C1 3.63 1 7.26 1 11 C0.67 11 0.34 11 0 11 C0 7.37 0 3.74 0 0 Z " fill="#000000" transform="translate(785,653)"/>
<path d="M0 0 C2.57 2.57 2.54 4.48 3 8 C0.43 5.43 0.46 3.52 0 0 Z " fill="#000000" transform="translate(779,607)"/>
<path d="M0 0 C1.56 1.81 1.56 1.81 3 4 C2.67 4.99 2.34 5.98 2 7 C0.54 4.35 0 3.11 0 0 Z " fill="#000000" transform="translate(776,600)"/>
<path d="M0 0 C1.98 0 3.96 0 6 0 C6 0.33 6 0.66 6 1 C4.02 1 2.04 1 0 1 C0 0.67 0 0.34 0 0 Z " fill="#000000" transform="translate(738,838)"/>
<path d="M0 0 C0.33 0 0.66 0 1 0 C1 1.98 1 3.96 1 6 C0.67 6 0.34 6 0 6 C0 4.02 0 2.04 0 0 Z " fill="#000000" transform="translate(784,664)"/>
<path d="M0 0 C0.83 0.16 0.83 0.16 5 1 C4.01 1.33 3.02 1.66 2 2 C1.34 1.34 0.68 0.68 0 0 Z " fill="#000000" transform="translate(730,558)"/>
<path d="M0 0 C0.66 0.33 0.66 0.33 4 2 C3.01 2 2.02 2 1 2 C0.67 1.34 0.34 0.68 0 0 Z " fill="#000000" transform="translate(841,496)"/>
<path d="M0 0 C0.99 0.33 1.98 0.66 3 1 C1.68 1.33 0.36 1.66 -1 2 C-0.67 1.34 -0.34 0.68 0 0 Z " fill="#000000" transform="translate(733,733)"/>
<path d="M0 0 C0.66 0.33 1.32 0.66 2 1 C1.01 1 0.02 1 -1 1 C-0.67 0.67 -0.34 0.34 0 0 Z " fill="#000000" transform="translate(932,721)"/>
<path d="M0 0 C1 4 1 4 1 4 Z " fill="#000000" transform="translate(782,674)"/>
<path d="M0 0 C1 4 1 4 1 4 Z " fill="#000000" transform="translate(783,670)"/>
<path d="M0 0 C4 1 4 1 4 1 Z " fill="#000000" transform="translate(489,589)"/>
<path d="M0 0 C0.99 0.33 1.98 0.66 3 1 C2.01 1 1.02 1 0 1 C0 0.67 0 0.34 0 0 Z " fill="#000000" transform="translate(837,493)"/>
<path d="M0 0 C3 1 3 1 3 1 Z " fill="#000000" transform="translate(980,843)"/>
<path d="M0 0 C0.33 0.66 0.66 1.32 1 2 C0.34 1.67 -0.32 1.34 -1 1 C-0.67 0.67 -0.34 0.34 0 0 Z " fill="#000000" transform="translate(842,795)"/>
<path d="" fill="#000000" transform="translate(0,0)"/>
<path d="" fill="#000000" transform="translate(0,0)"/>
<path d="" fill="#000000" transform="translate(0,0)"/>
<path d="" fill="#000000" transform="translate(0,0)"/>
<path d="M0 0 C3 1 3 1 3 1 Z " fill="#000000" transform="translate(472,589)"/>
<path d="" fill="#000000" transform="translate(0,0)"/>
<path d="" fill="#000000" transform="translate(0,0)"/>
<path d="" fill="#000000" transform="translate(0,0)"/>
<path d="M0 0 C2 1 2 1 2 1 Z " fill="#000000" transform="translate(991,840)"/>
<path d="M0 0 C2 1 2 1 2 1 Z " fill="#000000" transform="translate(736,732)"/>
<path d="M0 0 C2 1 2 1 2 1 Z " fill="#000000" transform="translate(738,731)"/>
<path d="M0 0 C2 1 2 1 2 1 Z " fill="#000000" transform="translate(935,719)"/>
<path d="" fill="#000000" transform="translate(0,0)"/>
<path d="" fill="#000000" transform="translate(0,0)"/>
<path d="" fill="#000000" transform="translate(0,0)"/>
<path d="" fill="#000000" transform="translate(0,0)"/>
<path d="" fill="#000000" transform="translate(0,0)"/>
<path d="" fill="#000000" transform="translate(0,0)"/>
<path d="" fill="#000000" transform="translate(0,0)"/>
<path d="" fill="#000000" transform="translate(0,0)"/>
<path d="" fill="#000000" transform="translate(0,0)"/>
<path d="" fill="#000000" transform="translate(0,0)"/>
<path d="" fill="#000000" transform="translate(0,0)"/>
<path d="" fill="#000000" transform="translate(0,0)"/>
<path d="" fill="#000000" transform="translate(0,0)"/>
<path d="" fill="#000000" transform="translate(0,0)"/>
<path d="" fill="#000000" transform="translate(0,0)"/>
<path d="" fill="#000000" transform="translate(0,0)"/>
<path d="" fill="#000000" transform="translate(0,0)"/>
<path d="" fill="#000000" transform="translate(0,0)"/>
<path d="" fill="#000000" transform="translate(0,0)"/>
<path d="" fill="#000000" transform="translate(0,0)"/>
<path d="" fill="#000000" transform="translate(0,0)"/>
<path d="" fill="#000000" transform="translate(0,0)"/>
<path d="" fill="#000000" transform="translate(0,0)"/>
<path d="" fill="#000000" transform="translate(0,0)"/>
<path d="" fill="#000000" transform="translate(0,0)"/>
<path d="" fill="#000000" transform="translate(0,0)"/>
<path d="" fill="#000000" transform="translate(0,0)"/>
<path d="" fill="#000000" transform="translate(0,0)"/>
<path d="" fill="#000000" transform="translate(0,0)"/>
<path d="" fill="#000000" transform="translate(0,0)"/>
<path d="" fill="#000000" transform="translate(0,0)"/>
<path d="" fill="#000000" transform="translate(0,0)"/>
<path d="" fill="#000000" transform="translate(0,0)"/>
<path d="" fill="#000000" transform="translate(0,0)"/>
<path d="" fill="#000000" transform="translate(0,0)"/>
<path d="" fill="#000000" transform="translate(0,0)"/>
<path d="" fill="#000000" transform="translate(0,0)"/>
<path d="" fill="#000000" transform="translate(0,0)"/>
</svg>
